# xmcd
#
# Track frame offsets:
#	150
#	16335
#	32603
#
# Disc length: 808 seconds
#
# Revision: 0
# Processed by: cddbd v1.5.1PL0 Copyright (c) Steve Scherf et al.
# Submitted via: audiograbber 1.83.01
#
DISCID=17032603
DTITLE=RIK (Charles R. Benedik) - Firenze - Florenz
DYEAR=1998
DGENRE=Soul
TTITLE0=Florenz
TTITLE1=Firenze
TTITLE2=Florenz (live)
EXTD=
EXTT0=
EXTT1=
EXTT2=
PLAYORDER=
